<svg xmlns="http://www.w3.org/2000/svg" width="16" height="16" viewBox="0 0 16 16">
  <g fill="none" fill-rule="evenodd">
    <polygon fill="#9AA7B0" points="6.119 3 2.88 3 4.499 1"/>
    <rect width="1" height="5" x="4" y="3" fill="#9AA7B0"/>
    <rect width="5" height="1" x="3" y="11" fill="#9AA7B0"/>
    <polygon fill="#9AA7B0" points="3 9.896 3 13.135 1 11.517"/>
    <polygon fill="#9AA7B0" points="9.881 13 13.12 13 11.502 15"/>
    <rect width="1" height="5" x="11" y="8" fill="#9AA7B0" transform="rotate(-179.996 11.5 10.5)"/>
    <rect width="5" height="1" x="8" y="4" fill="#9AA7B0" transform="rotate(-179.996 10.5 4.5)"/>
    <path fill="#9AA7B0" d="M7.99981,4 C5.790671,4 3.99981,5.790861 3.99981,8 C3.99981,10.209139 5.790671,12 7.99981,12 C10.208949,12 11.99981,10.209139 11.99981,8 C11.99981,6.93913404 11.5783826,5.92171839 10.8282371,5.17157288 C10.0780916,4.42142736 9.06067596,4 7.99981,4 Z M7.99981,10.6084 C6.94469177,10.6084 5.99347179,9.97279929 5.58971794,8.99798787 C5.1859641,8.02317644 5.40919226,6.90113504 6.15530784,6.15508811 C6.90142341,5.40904118 8.02348535,5.18591626 8.99825962,5.58975979 C9.97303389,5.99360331 10.6085471,6.94488177 10.60845,8 C10.6083175,9.44061836 9.44042837,10.6084 7.99981,10.6084 Z"/>
    <polygon fill="#9AA7B0" points="13 6.104 13 2.865 15 4.483"/>
  </g>
</svg>
